<svg xmlns="http://www.w3.org/2000/svg" viewBox="0 0 145.29 122.33">
    <defs>
        <style>.cls-1{font-size:24.01px;font-family:Montserrat-Bold, Montserrat Bold;font-weight:700;}.cls-1,.cls-4,.cls-5{fill:#00a79d;}.cls-2{letter-spacing:-0.05em;}.cls-3{fill:none;stroke-width:1.5px;}.cls-3,.cls-4{stroke:#414042;stroke-linecap:round;stroke-linejoin:round;}.cls-4{stroke-width:0.5px;}</style>
    </defs>
    <title>Asset 3</title>
    <g id="Layer_2" data-name="Layer 2">
        <g id="OBJECTS">
            <text class="cls-1" transform="translate(0 83)">#S<tspan class="cls-2" x="23.77" y="0">A</tspan>
                <tspan x="37.19" y="0">VELAHORE</tspan>
            </text>
            <polyline class="cls-3" points="100.7 94.97 74.1 121.58 47.5 94.97"/>
            <path class="cls-4" d="M58.06,53.12c-2.09-2.8.58-9.1,2.65-11.78,10.38-13.43,35.53-11.12,42.64-28.78"/>
            <path class="cls-4" d="M84.78,11.73c0,5.23.24,8.73-2.64,13.53-2.28,4-5,5.09-8.85,7.2"/>
            <path class="cls-4" d="M62.72,39.09A17.78,17.78,0,0,1,69,36.4c2.85-.45,5.85.17,8.69.54,4.76.63,9.68,1.36,14.54,1.81"/>
            <path class="cls-4" d="M62.57,21.36C68.33,27,58.94,36.2,59.75,42.55"/>
            <path class="cls-4" d="M57.63,47.94c1.91-7.49,16.5-1.27,20.76-.18"/>
            <path class="cls-5" d="M92.37,24.46s-.69-4.26,6.2-9.29,7.14-10.13,7-13.68C105.53,1.49,110.42,28,92.37,24.46Z"/>
            <path class="cls-5" d="M81.48,26.74s-3.22-3-.83-11.37-.6-12.63-3-15.37C77.68,0,98.24,18.27,81.48,26.74Z"/>
            <path class="cls-5" d="M61.66,34.87s-3.75-3-1.85-12.27S58.11,8.94,55.32,6.16C55.32,6.16,79.14,24.29,61.66,34.87Z"/>
            <path class="cls-5" d="M85,37.77s1.8,3.92,10.32,4.25,11.58,4.42,13.41,7.46C108.69,49.48,98,24.75,85,37.77Z"/>
            <path class="cls-5" d="M60.92,44.55s2.38,5.14,13.55,5.58,15.18,5.8,17.58,9.78C92.05,59.91,78,27.47,60.92,44.55Z"/>
            <line class="cls-3" x1="29.54" y1="53.12" x2="53.42" y2="29.23"/>
            <line class="cls-3" x1="112.4" y1="44.86" x2="120.66" y2="53.12"/>
        </g>
    </g>
</svg>